<svg xmlns="http://www.w3.org/2000/svg" viewBox="0 0 1880 1410" width="1880" height="1410" role="img" aria-label="Sổ Tay Sinh Viên CNTT — ba vai trò"><style>text{font-family:Segoe UI,Arial,sans-serif} .uc:focus ellipse,.uc:hover ellipse{stroke-width:3;stroke:#bd6b23}</style><defs><marker id="inherit" markerWidth="15" markerHeight="15" refX="13" refY="7" orient="auto"><path d="M1,1L13,7L1,13Z" fill="white" stroke="#536778" stroke-width="1.3"/></marker></defs><rect width="100%" height="100%" fill="white"/><text x="940" y="45" text-anchor="middle" font-size="30" font-weight="700" fill="#183247">SỔ TAY SINH VIÊN CNTT · USE CASE TOÀN HỆ THỐNG</text><text x="940" y="78" text-anchor="middle" font-size="18" font-weight="400" fill="#607381">Đại học Kiến trúc Đà Nẵng · Học phần Lập trình mạng · 05/09/2026</text><rect x="40" y="398" width="1800" height="960" rx="8" fill="#fcfdfe" stroke="#9bafbc" stroke-width="2"/><text x="940" y="431" text-anchor="middle" font-size="20" font-weight="650" fill="#183247">HỆ THỐNG HỎI ĐÁP HỌC VỤ CHO SINH VIÊN CNTT</text><path d="M940,203 V142 H350 V203" stroke="#536778" fill="none" marker-end="url(#inherit)"/><path d="M1530,203 V110 H970 V220 H957" stroke="#536778" fill="none" marker-end="url(#inherit)"/><text x="635" y="132" text-anchor="middle" font-size="16" font-weight="400" fill="#607381">Kế thừa quyền tra cứu</text><text x="1240" y="100" text-anchor="middle" font-size="16" font-weight="400" fill="#607381">Kế thừa quyền nội dung</text><g stroke="#21647a" stroke-width="3" fill="none"><circle cx="350" cy="220" r="17"/><path d="M350,237v53 M317,260h66 M350,290l-28,40 M350,290l28,40"/></g><text x="350" y="361" text-anchor="middle" font-size="23" font-weight="650" fill="#21647a">Sinh Viên CNTT</text><text x="350" y="386" text-anchor="middle" font-size="16" font-weight="400" fill="#21647a">USER</text><path d="M317,260 H100 V460 L135,498" fill="none" stroke="#21647a" stroke-width="1.2"/><g class="uc" data-id="UC01" tabindex="0"><title>UC01: Đăng nhập — Mã số hoặc email và mật khẩu</title><ellipse cx="350" cy="498" rx="215" ry="43" stroke="#21647a" stroke-width="1.8" fill="#f1f8fb"/><text x="350" y="485" text-anchor="middle" font-size="13" font-weight="650" fill="#21647a">UC01</text><text x="350" y="507" text-anchor="middle" font-size="21" font-weight="600" fill="#183247">Đăng nhập</text><text x="350" y="527" text-anchor="middle" font-size="14" font-weight="400" fill="#486171">Mã số hoặc email và mật khẩu</text></g><path d="M317,260 H100 V460 L135,597" fill="none" stroke="#21647a" stroke-width="1.2"/><g class="uc" data-id="UC02" tabindex="0"><title>UC02: Đăng xuất — Xóa phiên trên trình duyệt</title><ellipse cx="350" cy="597" rx="215" ry="43" stroke="#21647a" stroke-width="1.8" fill="#f1f8fb"/><text x="350" y="584" text-anchor="middle" font-size="13" font-weight="650" fill="#21647a">UC02</text><text x="350" y="606" text-anchor="middle" font-size="21" font-weight="600" fill="#183247">Đăng xuất</text><text x="350" y="626" text-anchor="middle" font-size="14" font-weight="400" fill="#486171">Xóa phiên trên trình duyệt</text></g><path d="M317,260 H100 V460 L135,696" fill="none" stroke="#21647a" stroke-width="1.2"/><g class="uc" data-id="UC03" tabindex="0"><title>UC03: Xem thông tin cá nhân — Thông tin, vai và phạm vi của tôi</title><ellipse cx="350" cy="696" rx="215" ry="43" stroke="#21647a" stroke-width="1.8" fill="#f1f8fb"/><text x="350" y="683" text-anchor="middle" font-size="13" font-weight="650" fill="#21647a">UC03</text><text x="350" y="705" text-anchor="middle" font-size="21" font-weight="600" fill="#183247">Xem thông tin cá nhân</text><text x="350" y="725" text-anchor="middle" font-size="14" font-weight="400" fill="#486171">Thông tin, vai và phạm vi của tôi</text></g><path d="M317,260 H100 V460 L135,795" fill="none" stroke="#21647a" stroke-width="1.2"/><g class="uc" data-id="UC04" tabindex="0"><title>UC04: Đổi mật khẩu — Mật khẩu của chính mình</title><ellipse cx="350" cy="795" rx="215" ry="43" stroke="#21647a" stroke-width="1.8" fill="#f1f8fb"/><text x="350" y="782" text-anchor="middle" font-size="13" font-weight="650" fill="#21647a">UC04</text><text x="350" y="804" text-anchor="middle" font-size="21" font-weight="600" fill="#183247">Đổi mật khẩu</text><text x="350" y="824" text-anchor="middle" font-size="14" font-weight="400" fill="#486171">Mật khẩu của chính mình</text></g><path d="M317,260 H100 V460 L135,894" fill="none" stroke="#21647a" stroke-width="1.2"/><g class="uc" data-id="UC05" tabindex="0"><title>UC05: Hỏi đáp học vụ — Câu trả lời theo tài liệu được phép đọc</title><ellipse cx="350" cy="894" rx="215" ry="43" stroke="#21647a" stroke-width="1.8" fill="#f1f8fb"/><text x="350" y="881" text-anchor="middle" font-size="13" font-weight="650" fill="#21647a">UC05</text><text x="350" y="903" text-anchor="middle" font-size="21" font-weight="600" fill="#183247">Hỏi đáp học vụ</text><text x="350" y="923" text-anchor="middle" font-size="14" font-weight="400" fill="#486171">Câu trả lời theo tài liệu được phép đọc</text></g><path d="M317,260 H100 V460 L135,993" fill="none" stroke="#21647a" stroke-width="1.2"/><g class="uc" data-id="UC06" tabindex="0"><title>UC06: Xem lại hội thoại — Danh sách và nội dung của chính mình</title><ellipse cx="350" cy="993" rx="215" ry="43" stroke="#21647a" stroke-width="1.8" fill="#f1f8fb"/><text x="350" y="980" text-anchor="middle" font-size="13" font-weight="650" fill="#21647a">UC06</text><text x="350" y="1002" text-anchor="middle" font-size="21" font-weight="600" fill="#183247">Xem lại hội thoại</text><text x="350" y="1022" text-anchor="middle" font-size="14" font-weight="400" fill="#486171">Danh sách và nội dung của chính mình</text></g><path d="M317,260 H100 V460 L135,1092" fill="none" stroke="#21647a" stroke-width="1.2"/><g class="uc" data-id="UC07" tabindex="0"><title>UC07: Tra cứu kho tài liệu — Tìm, lọc và xem chi tiết</title><ellipse cx="350" cy="1092" rx="215" ry="43" stroke="#21647a" stroke-width="1.8" fill="#f1f8fb"/><text x="350" y="1079" text-anchor="middle" font-size="13" font-weight="650" fill="#21647a">UC07</text><text x="350" y="1101" text-anchor="middle" font-size="21" font-weight="600" fill="#183247">Tra cứu kho tài liệu</text><text x="350" y="1121" text-anchor="middle" font-size="14" font-weight="400" fill="#486171">Tìm, lọc và xem chi tiết</text></g><path d="M317,260 H100 V460 L135,1191" fill="none" stroke="#21647a" stroke-width="1.2"/><g class="uc" data-id="UC08" tabindex="0"><title>UC08: Xem nguồn trích dẫn — Đoạn văn và tài liệu gốc</title><ellipse cx="350" cy="1191" rx="215" ry="43" stroke="#21647a" stroke-width="1.8" fill="#f1f8fb"/><text x="350" y="1178" text-anchor="middle" font-size="13" font-weight="650" fill="#21647a">UC08</text><text x="350" y="1200" text-anchor="middle" font-size="21" font-weight="600" fill="#183247">Xem nguồn trích dẫn</text><text x="350" y="1220" text-anchor="middle" font-size="14" font-weight="400" fill="#486171">Đoạn văn và tài liệu gốc</text></g><path d="M317,260 H100 V460 L135,1290" fill="none" stroke="#21647a" stroke-width="1.2"/><g class="uc" data-id="UC09" tabindex="0"><title>UC09: Theo dõi xử lý tài liệu — Trạng thái nạp của tài liệu được phép đọc</title><ellipse cx="350" cy="1290" rx="215" ry="43" stroke="#21647a" stroke-width="1.8" fill="#f1f8fb"/><text x="350" y="1277" text-anchor="middle" font-size="13" font-weight="650" fill="#21647a">UC09</text><text x="350" y="1299" text-anchor="middle" font-size="21" font-weight="600" fill="#183247">Theo dõi xử lý tài liệu</text><text x="350" y="1319" text-anchor="middle" font-size="14" font-weight="400" fill="#486171">Trạng thái nạp của tài liệu được phép đọc</text></g><g stroke="#9b6738" stroke-width="3" fill="none"><circle cx="940" cy="220" r="17"/><path d="M940,237v53 M907,260h66 M940,290l-28,40 M940,290l28,40"/></g><text x="940" y="361" text-anchor="middle" font-size="23" font-weight="650" fill="#9b6738">Giáo vụ khoa CNTT</text><text x="940" y="386" text-anchor="middle" font-size="16" font-weight="400" fill="#9b6738">CONTENT_ADMIN</text><path d="M907,260 H690 V460 L725,498" fill="none" stroke="#9b6738" stroke-width="1.2"/><g class="uc" data-id="UC10" tabindex="0"><title>UC10: Tải lên tài liệu — Tài liệu CNTT hoặc quy định chung</title><ellipse cx="940" cy="498" rx="215" ry="43" stroke="#9b6738" stroke-width="1.8" fill="#fdf7ef"/><text x="940" y="485" text-anchor="middle" font-size="13" font-weight="650" fill="#9b6738">UC10</text><text x="940" y="507" text-anchor="middle" font-size="21" font-weight="600" fill="#183247">Tải lên tài liệu</text><text x="940" y="527" text-anchor="middle" font-size="14" font-weight="400" fill="#486171">Tài liệu CNTT hoặc quy định chung</text></g><path d="M907,260 H690 V460 L725,597" fill="none" stroke="#9b6738" stroke-width="1.2"/><g class="uc" data-id="UC11" tabindex="0"><title>UC11: Sửa thông tin tài liệu — Tiêu đề và nhóm tài liệu</title><ellipse cx="940" cy="597" rx="215" ry="43" stroke="#9b6738" stroke-width="1.8" fill="#fdf7ef"/><text x="940" y="584" text-anchor="middle" font-size="13" font-weight="650" fill="#9b6738">UC11</text><text x="940" y="606" text-anchor="middle" font-size="21" font-weight="600" fill="#183247">Sửa thông tin tài liệu</text><text x="940" y="626" text-anchor="middle" font-size="14" font-weight="400" fill="#486171">Tiêu đề và nhóm tài liệu</text></g><path d="M907,260 H690 V460 L725,696" fill="none" stroke="#9b6738" stroke-width="1.2"/><g class="uc" data-id="UC12" tabindex="0"><title>UC12: Gỡ tài liệu — Loại tài liệu khỏi kho tri thức</title><ellipse cx="940" cy="696" rx="215" ry="43" stroke="#9b6738" stroke-width="1.8" fill="#fdf7ef"/><text x="940" y="683" text-anchor="middle" font-size="13" font-weight="650" fill="#9b6738">UC12</text><text x="940" y="705" text-anchor="middle" font-size="21" font-weight="600" fill="#183247">Gỡ tài liệu</text><text x="940" y="725" text-anchor="middle" font-size="14" font-weight="400" fill="#486171">Loại tài liệu khỏi kho tri thức</text></g><path d="M907,260 H690 V460 L725,795" fill="none" stroke="#9b6738" stroke-width="1.2"/><g class="uc" data-id="UC13" tabindex="0"><title>UC13: Chạy lại xử lý lỗi — Yêu cầu xử lý lại tài liệu thất bại</title><ellipse cx="940" cy="795" rx="215" ry="43" stroke="#9b6738" stroke-width="1.8" fill="#fdf7ef"/><text x="940" y="782" text-anchor="middle" font-size="13" font-weight="650" fill="#9b6738">UC13</text><text x="940" y="804" text-anchor="middle" font-size="21" font-weight="600" fill="#183247">Chạy lại xử lý lỗi</text><text x="940" y="824" text-anchor="middle" font-size="14" font-weight="400" fill="#486171">Yêu cầu xử lý lại tài liệu thất bại</text></g><g stroke="#69528d" stroke-width="3" fill="none"><circle cx="1530" cy="220" r="17"/><path d="M1530,237v53 M1497,260h66 M1530,290l-28,40 M1530,290l28,40"/></g><text x="1530" y="361" text-anchor="middle" font-size="23" font-weight="650" fill="#69528d">Quản Trị Viên</text><text x="1530" y="386" text-anchor="middle" font-size="16" font-weight="400" fill="#69528d">SYSTEM_ADMIN</text><path d="M1497,260 H1280 V460 L1315,498" fill="none" stroke="#69528d" stroke-width="1.2"/><g class="uc" data-id="UC14" tabindex="0"><title>UC14: Tra cứu người dùng — Sinh viên, giáo vụ và quản trị viên</title><ellipse cx="1530" cy="498" rx="215" ry="43" stroke="#69528d" stroke-width="1.8" fill="#f7f4fc"/><text x="1530" y="485" text-anchor="middle" font-size="13" font-weight="650" fill="#69528d">UC14</text><text x="1530" y="507" text-anchor="middle" font-size="21" font-weight="600" fill="#183247">Tra cứu người dùng</text><text x="1530" y="527" text-anchor="middle" font-size="14" font-weight="400" fill="#486171">Sinh viên, giáo vụ và quản trị viên</text></g><path d="M1497,260 H1280 V460 L1315,597" fill="none" stroke="#69528d" stroke-width="1.2"/><g class="uc" data-id="UC15" tabindex="0"><title>UC15: Khóa / mở tài khoản — Bật hoặc tắt trạng thái hoạt động</title><ellipse cx="1530" cy="597" rx="215" ry="43" stroke="#69528d" stroke-width="1.8" fill="#f7f4fc"/><text x="1530" y="584" text-anchor="middle" font-size="13" font-weight="650" fill="#69528d">UC15</text><text x="1530" y="606" text-anchor="middle" font-size="21" font-weight="600" fill="#183247">Khóa / mở tài khoản</text><text x="1530" y="626" text-anchor="middle" font-size="14" font-weight="400" fill="#486171">Bật hoặc tắt trạng thái hoạt động</text></g><path d="M1497,260 H1280 V460 L1315,696" fill="none" stroke="#69528d" stroke-width="1.2"/><g class="uc" data-id="UC16" tabindex="0"><title>UC16: Phân quyền tài khoản — Gán một trong ba vai trò</title><ellipse cx="1530" cy="696" rx="215" ry="43" stroke="#69528d" stroke-width="1.8" fill="#f7f4fc"/><text x="1530" y="683" text-anchor="middle" font-size="13" font-weight="650" fill="#69528d">UC16</text><text x="1530" y="705" text-anchor="middle" font-size="21" font-weight="600" fill="#183247">Phân quyền tài khoản</text><text x="1530" y="725" text-anchor="middle" font-size="14" font-weight="400" fill="#486171">Gán một trong ba vai trò</text></g><text x="940" y="991" text-anchor="middle" font-size="17" font-weight="650" fill="#9b6738">GIÁO VỤ KHOA CNTT</text><text x="940" y="1026" text-anchor="middle" font-size="18" font-weight="400" fill="#183247">Quản lý kho tài liệu của đồ án.</text><text x="940" y="1055" text-anchor="middle" font-size="17" font-weight="400" fill="#183247">Không quản lý tài khoản hoặc cấp vai.</text><text x="1530" y="905" text-anchor="middle" font-size="17" font-weight="650" fill="#69528d">QUẢN TRỊ VIÊN</text><text x="1530" y="940" text-anchor="middle" font-size="18" font-weight="400" fill="#183247">Quản lý tài khoản và phân quyền.</text><text x="1530" y="969" text-anchor="middle" font-size="17" font-weight="400" fill="#183247">Không mở rộng sang dữ liệu khoa khác.</text><text x="1235" y="1165" text-anchor="middle" font-size="19" font-weight="600" fill="#183247">Cả ba vai: tài liệu CNTT + quy định chung</text><text x="1235" y="1197" text-anchor="middle" font-size="19" font-weight="400" fill="#183247">áp dụng cho sinh viên CNTT.</text><text x="940" y="1390" text-anchor="middle" font-size="16" font-weight="400" fill="#607381">Đường liền: tham gia use case · Tam giác rỗng: kế thừa chức năng · Không biểu diễn thứ tự xử lý</text></svg>